<?xml version="1.0" standalone="no"?>
<!DOCTYPE svg PUBLIC "-//W3C//DTD SVG 20010904//EN"
 "http://www.w3.org/TR/2001/REC-SVG-20010904/DTD/svg10.dtd">
<svg version="1.0" xmlns="http://www.w3.org/2000/svg"
 width="286.000000pt" height="194.000000pt" viewBox="0 0 286.000000 194.000000"
 preserveAspectRatio="xMidYMid meet">

<g transform="translate(0.000000,194.000000) scale(0.100000,-0.100000)"
fill="#000000" stroke="none">
<path d="M990 1362 l0 -578 28 -55 c20 -41 38 -60 72 -79 l45 -25 370 0 370 0
0 105 0 105 -322 3 -323 2 0 335 0 335 325 0 325 0 0 110 0 110 -325 0 -325 0
0 105 0 105 -120 0 -120 0 0 -578z"/>
<path d="M160 1721 c-88 -27 -136 -80 -150 -167 -6 -33 -10 -256 -10 -496 l0
-438 120 0 120 0 0 445 0 445 325 0 325 0 0 110 0 110 -352 -1 c-194 0 -364
-4 -378 -8z"/>
<path d="M1982 1237 l3 -494 27 -35 c15 -20 45 -47 65 -60 38 -23 40 -23 411
-26 l372 -3 0 110 0 111 -322 0 -323 0 3 445 2 445 -120 0 -121 0 3 -493z"/>
<path d="M615 618 c-32 -18 -44 -40 -45 -80 0 -45 45 -88 92 -88 41 0 88 48
88 90 0 64 -79 110 -135 78z"/>
<path d="M275 435 c-16 -9 -38 -26 -47 -38 l-18 -22 0 33 0 32 -105 0 -105 0
0 -44 c0 -30 5 -46 15 -50 22 -8 22 -246 0 -246 -11 0 -15 -12 -15 -50 l0 -50
130 0 130 0 0 50 c0 47 -2 50 -25 50 -25 0 -25 0 -25 93 0 102 13 140 48 145
45 7 52 -12 52 -129 0 -102 -1 -109 -20 -109 -17 0 -20 -7 -20 -50 l0 -50 130
0 130 0 0 50 c0 38 -4 50 -15 50 -8 0 -15 4 -15 10 0 274 -23 330 -138 337
-39 3 -66 -1 -87 -12z"/>
<path d="M947 440 c-50 -15 -98 -61 -124 -117 -51 -112 -12 -247 87 -299 37
-20 59 -24 133 -24 78 0 96 3 138 27 47 25 49 28 49 70 0 23 -2 43 -4 43 -2 0
-20 -7 -39 -15 -43 -18 -126 -20 -161 -4 -14 7 -29 25 -35 40 l-10 28 127 3
127 3 -1 67 c-1 83 -33 139 -97 169 -45 20 -139 24 -190 9z m117 -78 c3 -5 8
-28 12 -50 l7 -42 -51 0 -51 0 6 33 c3 17 10 40 15 50 9 17 53 24 62 9z"/>
<path d="M2565 443 c-68 -17 -109 -81 -103 -160 7 -85 46 -118 162 -137 61
-11 71 -15 74 -34 3 -17 -2 -22 -20 -23 -54 -3 -74 4 -99 31 -21 25 -33 30
-72 30 l-47 0 0 -75 0 -75 46 0 c37 0 47 4 51 20 5 20 5 20 30 0 39 -30 157
-28 204 3 48 32 71 81 66 140 -6 68 -50 112 -126 127 -101 20 -116 26 -119 42
-2 9 6 22 18 28 27 14 86 -3 100 -31 8 -15 22 -19 60 -19 l50 0 0 65 0 65 -45
0 c-31 0 -47 -5 -54 -17 -6 -10 -11 -13 -11 -7 0 27 -100 43 -165 27z"/>
<path d="M540 396 c0 -30 5 -46 15 -50 12 -4 15 -28 15 -126 0 -100 -2 -120
-15 -120 -11 0 -15 -12 -15 -50 l0 -50 125 0 125 0 0 50 c0 36 -4 50 -14 50
-23 0 -26 24 -26 186 l0 154 -105 0 -105 0 0 -44z"/>
<path d="M1250 396 c0 -30 5 -46 15 -50 12 -4 15 -26 15 -108 0 -122 12 -171
50 -210 26 -25 35 -28 97 -28 69 0 101 12 131 48 10 13 12 11 12 -16 l0 -32
105 0 105 0 0 49 c0 40 -3 50 -20 54 -19 5 -20 14 -20 171 l0 166 -110 0 -110
0 0 -44 c0 -35 4 -45 20 -49 18 -5 20 -14 20 -115 0 -120 -7 -136 -56 -130
-38 4 -42 23 -43 196 l-1 142 -105 0 -105 0 0 -44z"/>
<path d="M1780 399 c0 -26 6 -46 15 -53 10 -7 32 -79 57 -179 l41 -167 83 0
83 0 9 34 c6 18 18 68 28 110 10 42 19 74 21 72 2 -2 17 -50 32 -107 l28 -104
83 0 84 0 42 170 c23 93 47 171 53 173 6 2 11 24 11 48 l0 44 -85 0 -85 0 0
-45 c0 -33 4 -45 14 -45 24 0 25 -11 6 -95 l-17 -80 -13 45 c-27 98 -38 137
-49 178 l-12 43 -67 -3 -66 -3 -30 -123 c-16 -67 -32 -122 -36 -122 -8 0 -31
140 -25 151 4 5 13 9 21 9 10 0 14 12 14 45 l0 45 -120 0 -120 0 0 -41z"/>
</g>
</svg>
