<?xml version="1.0" encoding="UTF-8"?>
<svg width="600px" height="600px" viewBox="0 0 600 600" version="1.1" xmlns="http://www.w3.org/2000/svg" xmlns:xlink="http://www.w3.org/1999/xlink">
    <title>assets/icon</title>
    <g id="/assets/icon" stroke="none" stroke-width="1" fill="none" fill-rule="evenodd">
        <path d="M106.724434,447.025452 L106.724434,480.398053 L106.72871,480.96098 C106.806933,485.923043 107.992107,488.077469 113.035303,488.077469 L113.937939,488.077469 L113.937939,504.855772 L62.1766776,504.855772 L62.1766776,488.077469 L64.1791652,488.077469 C69.7656494,488.077469 71.7491736,486.109736 71.7491736,480.398053 L71.7491736,449.518915 C71.7491736,439.879277 68.1424214,435.418081 60.7506641,435.418081 C52.6421079,435.418081 47.7686304,441.659249 47.7686304,454.517107 L47.7686304,480.398053 C47.7686304,486.109736 49.0315629,488.077469 55.3424316,488.077469 L57.3449186,488.077469 L57.3449186,504.855772 L5.40540541,504.855772 L5.40540541,488.077469 L7.02484122,488.077469 C11.5342303,488.077469 12.7971627,485.760501 12.7971627,480.398053 L12.7971627,445.237969 C12.7971627,437.329366 9.47663909,435.130772 5.93712625,435.062968 L5.40540541,435.061335 L5.40540541,416.6758 L46.8697863,416.6758 L46.8697863,437.382058 C51.3791754,424.167455 60.3903679,414.531572 77.8817906,414.531572 C95.9079691,414.531572 106.724434,424.884701 106.724434,447.025452 Z M160.992597,416.6758 L160.992597,480.398053 C160.992597,485.760501 162.255529,488.077469 166.764919,488.077469 L169.283198,488.077469 L169.283198,504.855772 L118.629373,504.855772 L118.629373,488.077469 L120.252601,488.077469 C124.758197,488.077469 126.021129,485.760501 126.021129,480.398053 L126.021129,443.626982 C126.021129,434.88484 122.588836,433.454103 118.985876,433.454103 L118.629373,433.454103 L118.629373,416.6758 L160.992597,416.6758 Z M124.576153,395.072044 C124.576153,385.428651 132.688502,377.4 142.427871,377.4 C152.159656,377.4 160.272005,385.428651 160.272005,395.072044 C160.272005,404.711683 152.159656,412.567594 142.427871,412.567594 C132.688502,412.567594 124.576153,404.711683 124.576153,395.072044 Z M222.652517,506.823505 C192.134611,506.823505 173.630428,491.074702 173.263396,461.657638 L173.257832,460.589291 C173.257832,430.596384 194.348422,414.531572 220.130445,414.531572 C246.989564,414.531572 262.133374,428.455911 262.133374,455.947844 L262.133374,465.054242 L208.779225,465.054242 L208.779225,465.944228 C209.852527,481.652295 218.143128,485.760501 235.452507,485.760501 C244.649536,485.760501 252.94393,483.083032 260.699775,479.151321 L260.699775,493.792907 L260.282368,494.175969 C254.034377,499.826261 242.224976,506.823505 222.652517,506.823505 Z M208.779225,451.482893 L231.132748,451.482893 L231.132748,449.518915 C231.132748,435.598331 228.424839,428.992907 221.033081,428.992907 C213.281029,428.992907 209.674276,434.88484 208.779225,451.482893 Z M332.269732,443.089986 C332.269732,434.88484 328.845023,433.454103 323.440583,433.454103 L323.080288,433.454103 L323.080288,416.6758 L367.244992,416.6758 L367.244992,480.935049 C367.244992,486.109736 369.952901,488.077469 373.552068,488.077469 L375.725222,488.077469 L375.725222,504.855772 L334.075004,504.855772 L334.075004,487.007232 C329.387363,499.320584 320.00829,507 303.423296,507 C284.490689,507 274.038313,496.64687 274.038313,474.517385 L274.038313,443.089986 C274.038313,435.54385 271.767039,433.52003 268.263917,433.455703 L267.727444,433.454103 L267.727444,416.6758 L309.017365,416.6758 L309.017365,473.796384 C309.017365,483.436022 312.438281,487.716968 319.830038,487.716968 C327.942387,487.716968 332.269732,482.185535 332.269732,472.369402 L332.269732,443.089986 Z M446.749045,455.057858 L433.414301,504.855772 L400.597024,504.855772 L385.092918,442.2 C383.682648,436.24607 380.881413,435.103501 378.727338,435.062505 L377.704954,435.061335 L377.704954,416.6758 L425.119905,416.6758 L425.119905,435.061335 L424.399314,435.061335 C416.651056,435.061335 416.290759,437.025313 417.728151,444.881224 L424.221067,478.081085 L439.546917,416.6758 L464.779013,416.6758 L481.193342,476.113352 L488.372039,444.227327 C489.89146,437.186205 488.09691,435.122722 482.181851,435.062694 L481.193342,435.061335 L481.193342,416.6758 L515.083926,416.6758 L515.083926,435.061335 L514.003033,435.061335 C511.83747,435.061335 509.861529,436.492072 508.230712,442.736996 L492.726609,504.855772 L460.098961,504.855772 L446.749045,455.057858 Z M539.420967,496.827121 L536.538603,504.855772 L520.139445,504.855772 L520.139445,477.544089 L538.347666,477.544089 C540.691488,486.470237 549.156545,490.578442 558.721456,490.578442 C565.206789,490.578442 570.254723,488.253964 570.254723,483.436022 C570.254723,478.25758 567.008267,477.187344 561.956537,476.473853 L561.253179,476.384234 C554.622694,475.593882 543.041099,475.592101 533.292147,470.758414 C523.378315,465.944228 519.415058,456.66509 519.415058,445.057719 C519.415058,421.136996 540.141565,414.531572 553.84798,414.531572 C565.749127,414.531572 572.958841,418.283032 576.565592,423.810709 L579.262125,416.6758 L594.952066,416.6758 L594.952066,442.01975 L577.468226,442.01975 C574.22177,434.347844 567.543019,430.059388 559.074166,430.059388 C553.127389,430.059388 547.719153,432.199861 547.719153,437.738804 C547.719153,441.839499 550.593938,444.163978 554.936452,444.881224 C562.506461,446.131711 576.387339,446.664951 585.390945,451.126147 C596.753544,456.66509 600,465.410987 600,476.113352 C600,496.64687 585.93329,506.823505 564.30036,506.823505 C550.415685,506.823505 543.395606,502.182058 539.420967,496.827121 Z M0,366.6 L0,184.361765 C0,150.682245 21.2977486,138.685736 44.8926949,138.685736 L182.782963,138.685736 L182.782963,182.051758 L48.1340798,182.051758 L48.1340798,366.6 L0,366.6 Z M254.035028,182.051758 L254.035028,323.233978 L388.683912,323.233978 L388.683912,366.6 L250.803377,366.6 C227.208431,366.6 205.910682,354.60349 205.910682,320.933677 L205.910682,93 L254.035028,93 L254.035028,138.685736 L388.683912,138.685736 L388.683912,182.051758 L254.035028,182.051758 Z M459.945712,323.233978 L594.594595,323.233978 L594.594595,366.6 L456.704326,366.6 C433.10938,366.6 411.831099,354.60349 411.831099,320.933677 L411.831099,138.685736 L459.945712,138.685736 L459.945712,323.233978 Z" id="Shape" fill="#000000" fill-rule="nonzero"></path>
    </g>
</svg>