<svg version="1.2" xmlns="http://www.w3.org/2000/svg" viewBox="0 0 1191 842" width="1191" height="842">
	<title>RTL_Nieuws-ai</title>
	<style>
		tspan { white-space:pre } 
		.s0 { fill: #231f20 } 
		.s1 { fill: #939ca1 } 
	</style>
	<g id="_Artboards_">
	</g>
	<g id="Layer 1">
		<text id="
" style="transform: matrix(1,0,0,1,211.659,204.175)" >
		</text>
		<g id="&lt;Group&gt;">
			<g id="&lt;Group&gt;">
				<path id="&lt;Path&gt;" class="s0" d="m369.1 409.1v-31.1c0-1.4-1.1-2.5-2.4-2.5-7.2 0-19.8 0-19.8 0-34.6 0-50.1 23.8-50.1 47.4v70c0.1 1.3 1.2 2.4 2.5 2.4 7.6 0 30.6 0 39.6 0 1.4 0 2.4-1.1 2.4-2.5v-66c0-9.6 5.8-15.3 15.4-15.3 0 0 5.8 0 10.5 0 1.1-0.2 1.9-1.2 1.9-2.4z"/>
			</g>
			<g id="&lt;Group&gt;">
				<path id="&lt;Path&gt;" class="s0" d="m580.5 532.6c-5.4-5.3-9.3-9.6-14.4-17.9-3.9-6.6-5.9-16.9-5.9-30.4v-168.4c0-1.4-1.1-2.9-2.4-2.5l-40.2 13.8q0 0 0 0.1c-1.1 0.2-1.9 1.2-1.9 2.3v156.6c0 14.6 0.7 31.3 8.9 44.8 6.7 11.5 16.7 21.5 26.4 31.2 1 0.8 2.4 0.8 3.3-0.1 6.1-6 20.5-20.4 26.4-26.3 0.7-1 0.7-2.3-0.2-3.2z"/>
			</g>
			<g id="&lt;Group&gt;">
				<path id="&lt;Path&gt;" class="s0" d="m479.1 375.5h-19.5-3.4c-1.3 0-2.4-1.1-2.4-2.4v-33.9c0-1.4-1.2-2.9-2.5-2.5l-37.4 13.6c-0.9 0.4-1.4 1.2-1.4 2.2l-0.4 20.5h-0.1c0 1.4-1 2.5-2.3 2.5h-4.7-9.3c-1.4 0-2.4 1.1-2.4 2.5v31.1c0 1.3 1.1 2.4 2.4 2.4h11.2c1.3 0.1 2.3 1.2 2.3 2.5h0.1v43.3q0 0 0 0.1 0 0.1 0 0.2c0 28.2 15.2 52.6 37.5 65.1 0.9 0.4 2 0.3 2.8-0.4l24.5-24.2c0.9-1 0.9-2.5-0.1-3.4h0.1c-11.7-8.9-19.5-22.7-20.3-38.4 0-0.3 0-19.4 0-42.4 0-1.2 0.7-2.1 1.7-2.4h23.6c1.4 0 2.5-1.1 2.5-2.5v-31c0-1.4-1.1-2.5-2.5-2.5z"/>
			</g>
		</g>
		<g id="&lt;Group&gt;">
			<path id="&lt;Path&gt;" class="s1" d="m895.6 362.1c0-14.6-0.7-31.3-8.8-44.8-6.8-11.5-16.7-21.5-26.5-31.2-1-0.8-2.4-0.8-3.3 0.1-6 6-20.4 20.4-26.3 26.3-0.8 1-0.7 2.3 0.2 3.2 5.3 5.4 9.2 9.6 14.3 17.9 3.9 6.6 5.9 16.9 5.9 30.4v121.1c0 13.5-2 23.8-5.9 30.4-5.1 8.3-9 12.6-14.3 17.9-0.9 0.9-1 2.3-0.2 3.2 5.9 5.9 20.3 20.3 26.3 26.3 0.9 0.9 2.3 0.9 3.3 0.1 9.8-9.7 19.7-19.7 26.5-31.2 8.1-13.5 8.8-30.2 8.8-44.8z"/>
		</g>
		<path id="&lt;Compound Path&gt;" fill-rule="evenodd" class="s1" d="m807.4 424.6c0 56.2-45.6 101.7-101.8 101.7-56.2 0-101.8-45.5-101.8-101.7 0-56.2 45.6-101.9 101.8-101.9 56.2 0 101.8 45.7 101.8 101.9zm-56.1-58.3c0.8 1.5 1.5 3.1 2.2 4.7 3.4 7.8 6 15.9 7.6 24.2 1.6 8.5 2.3 17.1 2.1 25.7-0.1 2.7-0.3 5.4-0.6 8.1 2.4-1.3 4.6-2.9 6.6-4.6 2.3-2 4.3-4.3 5.9-6.6 1.6-2.5 2.8-5.2 3.5-8q0.9-3.3 1-6.7c-0.2-2.8-0.8-5.5-1.5-8.3-1-3.2-2.4-6.4-4.1-9.6-1.7-3-3.8-6.1-6.3-8.9-3.5-4.3-7.8-8.2-12.6-11.6q-1.8 0.9-3.8 1.6zm-48 2.4c-2.9 0.9-5.7 2.3-8.5 4.1-2.8 1.8-5.5 3.9-8.1 6.4-5.3 4.9-10 11-14.2 18.1-2.8 5-5.3 10.4-7.3 16.1q6.1 5.5 13.9 10c7.4 4.1 15.5 7.5 24.1 9.8 8.7 2.3 17.3 3.5 25.8 3.5q0.4 0 0.7 0c5.8 0 11.2-0.6 16.3-1.6 1.1-6 1.7-11.9 1.7-17.7 0-8.2-1-15.8-3.1-22.8-1.1-3.4-2.4-6.6-3.9-9.5-1.5-2.9-3.3-5.6-5.3-7.8-2-2.4-4.3-4.4-6.7-5.9q-3.5-2.3-7.5-3.5l-0.5-0.1c-2.8-0.8-5.7-1.1-8.6-0.9-2.9 0.1-5.9 0.7-8.8 1.8zm-59.6 75c0.3-8.5 1.5-17 3.7-25.3q-6.3-6.3-11.6-13.4-1.4-2-2.7-4-0.6 1.8-1.1 3.6c-6.6 24.5-0.4 49.4 14.4 67.7q-0.3-1.5-0.6-2.9c-1.6-8.5-2.3-17.2-2.1-25.7zm13.8-51.3c4.1-7.6 9-14.7 14.7-21.2 5.6-6.4 11.9-12.2 18.8-17.2q2-1.5 4-2.9-1.4-1.5-2.5-3.2c-5.9 0.6-11.5 1.9-16.7 3.7-3.5 1.3-6.9 2.9-9.9 4.6-3.1 1.9-5.9 4-8.3 6.3-2 1.9-3.8 4-5.3 6.3-1.2 2-2.1 4.2-2.7 6.4-0.8 2.8-1 5.7-0.9 8.7 0.2 2.8 0.8 5.8 1.8 8.7 0.8 2.4 2 4.8 3.3 7.3 1.2-2.6 2.4-5.1 3.7-7.5zm62.7 93c5.3-4.9 10-11 14.1-18.2 2.8-4.8 5.3-10.1 7.2-15.6-5.3 0.6-10.7 0.7-16 0.6-8.8-0.3-17.7-1.6-26.3-3.9-8.7-2.3-17.1-5.6-24.9-9.9q-7-3.8-13.5-8.4-1.6 8.7-1.6 17.1c0 8.3 1 15.9 3.1 22.8 1.1 3.5 2.4 6.7 3.9 9.6 1.6 2.8 3.3 5.5 5.3 7.8 2 2.4 4.3 4.4 6.7 5.9 2.4 1.6 5 2.8 7.7 3.5l0.3 0.1q3.4 0.9 7 0.9 0.8 0 1.6 0c2.9-0.2 5.9-0.8 8.8-1.8 2.8-1 5.7-2.4 8.5-4.2 2.8-1.7 5.5-3.8 8.1-6.3zm59-41.4q0.5-1.8 0.9-3.6-2.4 1.1-4.7 2.2c-5.3 2.3-10.9 4.2-16.5 5.7-2.3 8.3-5.5 16.3-9.5 23.8-4.1 7.6-9 14.8-14.7 21.3q-0.9 1-1.9 2.1c22-8.5 39.8-27 46.4-51.5z"/>
	</g>
</svg>